<?xml version="1.0" encoding="utf-8"?><!-- Uploaded to: SVG Repo, www.svgrepo.com, Generator: SVG Repo Mixer Tools -->
<svg width="800px" height="800px" viewBox="0 0 400 400" fill="none" xmlns="http://www.w3.org/2000/svg">
<path d="M158.819 86.5991C201.143 28.3241 278.337 122.156 224.093 160.564C181.942 190.411 132.455 143.889 152.245 103.409" stroke="#000000" stroke-opacity="0.9" stroke-width="16" stroke-linecap="round" stroke-linejoin="round"/>
<path d="M126.464 230.948C126.464 230.948 155.76 199.672 190.523 198.794C225.285 197.916 260.26 221.511 268.948 227.349" stroke="#000000" stroke-opacity="0.9" stroke-width="16" stroke-linecap="round" stroke-linejoin="round"/>
<path d="M92.0834 233.086C146.585 232.453 177.655 232.136 185.295 232.136C218.51 232.136 323.649 230.322 323.649 234.313C323.649 238.304 323.649 249.05 323.649 255.469C323.649 261.889 323.649 321.884 323.649 326.626C323.649 331.368 317.38 331.368 301.452 331.368C285.524 331.368 96.3834 335.041 85.8432 331.368C75.303 327.694 77.8401 268.78 77.8401 263.435C77.8401 258.091 77.8401 250.904 77.8401 246.875" stroke="#000000" stroke-opacity="0.9" stroke-width="12" stroke-linecap="round" stroke-linejoin="round"/>
<path d="M323.428 267.295C327.159 267.295 338.355 269.611 335.556 276.142C333.69 280.496 329.647 282.673 323.428 282.673" stroke="#000000" stroke-opacity="0.9" stroke-width="16" stroke-linecap="round" stroke-linejoin="round"/>
<path d="M77.5722 270.404C69.1907 269.505 65 270.542 65 273.516C65 277.977 70.996 282.673 77.5722 282.673" stroke="#000000" stroke-opacity="0.9" stroke-width="16" stroke-linecap="round" stroke-linejoin="round"/>
</svg>